<svg width="367" height="46" viewBox="0 0 367 46" fill="none" xmlns="http://www.w3.org/2000/svg">
    <path
        d="M22.3398 18.6715C21.4638 19.1869 20.1569 19.9557 19.0238 20.9313L19.2057 21.3707C20.7005 21.2625 22.1716 20.8851 23.1572 20.6323C23.4669 20.5529 23.7287 20.4857 23.9282 20.4431C24.8754 20.2409 27.2125 20.1624 28.2628 20.1485V26.2656C27.2125 26.2519 24.8754 26.1734 23.9282 25.9709C23.7284 25.9283 23.4662 25.8611 23.156 25.7815C22.1707 25.5289 20.7006 25.1519 19.2068 25.0437L19.0232 25.483C20.157 26.4593 21.4648 27.2285 22.341 27.7439C22.6164 27.9058 22.8491 28.0427 23.0205 28.1531C23.8338 28.6774 25.5422 30.268 26.2946 30.9979L21.9524 35.3234C21.2195 34.5739 19.6226 32.8723 19.0965 32.0619C18.9855 31.891 18.8479 31.6588 18.6849 31.384C18.1676 30.5114 17.3958 29.2096 16.4164 28.0809L15.9748 28.2623C16.0834 29.7506 16.4619 31.2152 16.7156 32.1969C16.7954 32.506 16.8629 32.7672 16.9057 32.9662C17.109 33.9098 17.1878 36.2378 17.2015 37.284H11.0607C11.0746 36.2378 11.1534 33.9098 11.3564 32.9662C11.3992 32.7674 11.4666 32.5067 11.5464 32.1982C11.8001 31.2166 12.1789 29.7515 12.2875 28.2627L11.847 28.0801C10.8673 29.2089 10.0953 30.5111 9.57784 31.384C9.415 31.6586 9.2772 31.8911 9.16625 32.0619C8.64012 32.8723 7.04327 34.5739 6.31036 35.3234L1.96813 30.9979C2.72061 30.268 4.42891 28.6774 5.24229 28.1531C5.41362 28.0427 5.64636 27.9058 5.92172 27.7439C6.7978 27.2286 8.10528 26.4596 9.23883 25.4836L9.05707 25.0446C7.56287 25.1527 6.09242 25.5297 5.10684 25.7825C4.79687 25.8619 4.53424 25.9293 4.33461 25.9719C3.38732 26.1743 1.05022 26.2528 0 26.2665V20.1494C1.05022 20.1633 3.38732 20.2418 4.33461 20.4441C4.53403 20.4867 4.79568 20.5538 5.10523 20.6332C6.09054 20.8859 7.56138 21.2632 9.05581 21.3715L9.2395 20.9317C8.1063 19.9559 6.79912 19.1869 5.92294 18.6715C5.64709 18.5092 5.41394 18.3721 5.24241 18.2615C4.42888 17.7374 2.72057 16.1468 1.96825 15.4167L6.31048 11.0913C7.04324 11.8408 8.64009 13.5425 9.16637 14.3528C9.27717 14.5234 9.41459 14.7553 9.57717 15.0295C10.0945 15.9022 10.8665 17.2047 11.8463 18.3339L12.2876 18.1526C12.1789 16.6636 11.8002 15.1983 11.5464 14.2166C11.4667 13.9083 11.3992 13.6473 11.3564 13.4487C11.1534 12.5051 11.0746 10.177 11.0607 9.13086H17.2015C17.1878 10.177 17.109 12.5051 16.9057 13.4487C16.863 13.6475 16.7955 13.9085 16.7157 14.2173C16.4621 15.1987 16.0836 16.6635 15.9749 18.1514L16.4161 18.3343C17.3961 17.205 18.1682 15.9024 18.6856 15.0296C18.8482 14.7553 18.9856 14.5234 19.0964 14.3528C19.6227 13.5425 21.2195 11.8408 21.9523 11.0913L26.2945 15.4167C25.5422 16.1468 23.8339 17.7374 23.0203 18.2615C22.8489 18.372 22.6156 18.5093 22.3398 18.6715Z"
        fill="#FF7A00" />
    <path
        d="M33.4541 46V9.81964H39.1777L39.1237 17.2763L40.0416 17.3288C40.4016 15.5784 40.9775 14.0906 41.7695 12.8653C42.5974 11.64 43.6413 10.7123 44.9012 10.0822C46.1611 9.45206 47.655 9.13699 49.3829 9.13699C51.9027 9.13699 54.0445 9.74962 55.8084 10.9749C57.5722 12.1651 58.9041 13.863 59.8041 16.0685C60.74 18.239 61.208 20.777 61.208 23.6826C61.208 26.4132 60.776 28.8638 59.9121 31.0342C59.0841 33.1697 57.8062 34.8676 56.0784 36.1279C54.3865 37.3531 52.2807 37.9658 49.7608 37.9658C47.925 37.9658 46.3771 37.6157 45.1172 36.9155C43.8573 36.2154 42.8314 35.2527 42.0394 34.0274C41.2475 32.8021 40.5996 31.3843 40.0956 29.774H39.1237C39.3396 30.7192 39.5196 31.6994 39.6636 32.7146C39.8436 33.6948 39.9876 34.675 40.0956 35.6553C40.2036 36.6005 40.2576 37.5107 40.2576 38.3858V46H33.4541ZM47.547 32.5571C48.9509 32.5571 50.1388 32.1895 51.1107 31.4543C52.0827 30.6842 52.8206 29.6339 53.3246 28.3037C53.8285 26.9384 54.0805 25.3805 54.0805 23.6301C54.0805 21.8097 53.8105 20.2344 53.2706 18.9041C52.7666 17.5738 52.0107 16.5411 51.0028 15.8059C49.9948 15.0708 48.8069 14.7032 47.439 14.7032C46.2511 14.7032 45.2072 14.9658 44.3073 15.4909C43.4073 16.016 42.6514 16.7161 42.0394 17.5913C41.4275 18.4315 40.9775 19.3417 40.6895 20.3219C40.4016 21.3021 40.2576 22.2648 40.2576 23.21V24.1027C40.2576 24.8029 40.3476 25.5381 40.5276 26.3082C40.7435 27.0434 41.0495 27.796 41.4455 28.5662C41.8415 29.3014 42.3274 29.984 42.9034 30.6142C43.4793 31.2093 44.1633 31.6819 44.9552 32.032C45.7472 32.382 46.6111 32.5571 47.547 32.5571Z"
        fill="#000000" />
    <path
        d="M66.8197 37.2831V0H73.6772V8.55936C73.6772 9.29452 73.6412 10.0472 73.5692 10.8174C73.5332 11.5875 73.4612 12.3752 73.3532 13.1804C73.2452 13.9855 73.1193 14.7907 72.9753 15.5959C72.8673 16.4011 72.7413 17.2062 72.5973 18.0114H73.7312C74.2352 16.121 74.8831 14.5282 75.6751 13.2329C76.467 11.9026 77.4749 10.8874 78.6988 10.1872C79.9587 9.48706 81.4886 9.13699 83.2885 9.13699C86.5642 9.13699 89.012 10.2572 90.6319 12.4977C92.2518 14.7032 93.0617 18.0639 93.0617 22.5799V37.2831H86.2042V23.5251C86.2042 20.5145 85.7363 18.2915 84.8004 16.8562C83.9004 15.4209 82.5325 14.7032 80.6967 14.7032C79.1848 14.7032 77.9249 15.1583 76.917 16.0685C75.909 16.9437 75.1351 18.1164 74.5951 19.5868C74.0552 21.0571 73.7312 22.7199 73.6232 24.5753V37.2831H66.8197Z"
        fill="#000000" />
    <path
        d="M112.454 37.9658C110.186 37.9658 108.152 37.6507 106.352 37.0205C104.588 36.3904 103.095 35.4802 101.871 34.29C100.647 33.0647 99.7108 31.5944 99.0629 29.879C98.4149 28.1636 98.0909 26.2207 98.0909 24.0502C98.0909 21.8798 98.3969 19.8843 99.0089 18.0639C99.6568 16.2435 100.575 14.6682 101.763 13.3379C102.951 12.0076 104.39 10.9749 106.082 10.2397C107.81 9.50457 109.772 9.13699 111.968 9.13699C114.02 9.13699 115.856 9.46956 117.475 10.1347C119.095 10.7998 120.463 11.7976 121.579 13.1279C122.695 14.4231 123.523 16.051 124.063 18.0114C124.603 19.9368 124.783 22.1773 124.603 24.7329L102.519 24.8904V21.0571L120.661 20.8995L118.285 23.0525C118.501 21.0571 118.339 19.4292 117.799 18.1689C117.259 16.8737 116.486 15.9285 115.478 15.3333C114.47 14.7032 113.318 14.3881 112.022 14.3881C110.546 14.3881 109.25 14.7732 108.134 15.5434C107.018 16.2785 106.154 17.3638 105.542 18.7991C104.966 20.1994 104.678 21.9148 104.678 23.9452C104.678 26.9909 105.362 29.2664 106.73 30.7717C108.134 32.277 110.042 33.0297 112.454 33.0297C113.534 33.0297 114.434 32.9072 115.154 32.6621C115.91 32.382 116.54 32.032 117.043 31.6119C117.547 31.1568 117.943 30.6492 118.231 30.089C118.555 29.5289 118.807 28.9338 118.987 28.3037L124.927 29.6164C124.639 30.9117 124.171 32.067 123.523 33.0822C122.875 34.0974 122.029 34.9726 120.985 35.7078C119.977 36.4429 118.771 37.003 117.367 37.3881C115.964 37.7732 114.326 37.9658 112.454 37.9658Z"
        fill="#000000" />
    <path
        d="M130.282 37.2831V9.81964H135.951L135.789 18.2215H136.761C137.265 16.156 137.931 14.4581 138.759 13.1279C139.623 11.7976 140.721 10.7998 142.053 10.1347C143.385 9.46956 144.933 9.13699 146.696 9.13699C149.9 9.13699 152.33 10.2397 153.986 12.4452C155.678 14.6507 156.524 18.0639 156.524 22.6849V37.2831H149.666V23.3676C149.666 20.3919 149.198 18.2215 148.262 16.8562C147.362 15.4559 146.013 14.7557 144.213 14.7557C142.701 14.7557 141.423 15.2283 140.379 16.1735C139.335 17.0837 138.525 18.309 137.949 19.8493C137.409 21.3546 137.121 23.0175 137.085 24.8379V37.2831H130.282Z"
        fill="#000000" />
    <path
        d="M175.7 37.9658C172.928 37.9658 170.48 37.4231 168.356 36.3379C166.233 35.2177 164.559 33.5898 163.335 31.4543C162.147 29.2839 161.553 26.6233 161.553 23.4726C161.553 20.2519 162.165 17.5913 163.389 15.4909C164.649 13.3554 166.341 11.7626 168.464 10.7123C170.588 9.6621 172.982 9.13699 175.646 9.13699C178.418 9.13699 180.865 9.67961 182.989 10.7648C185.113 11.8501 186.787 13.4779 188.011 15.6484C189.235 17.7839 189.847 20.4444 189.847 23.6301C189.847 26.8508 189.235 29.5289 188.011 31.6644C186.787 33.7998 185.095 35.3927 182.935 36.4429C180.811 37.4581 178.4 37.9658 175.7 37.9658ZM175.97 32.9247C177.482 32.9247 178.76 32.5921 179.804 31.9269C180.847 31.2268 181.639 30.1941 182.179 28.8288C182.755 27.4635 183.043 25.8356 183.043 23.9452C183.043 21.9498 182.737 20.2519 182.125 18.8516C181.549 17.4163 180.703 16.3135 179.588 15.5434C178.508 14.7732 177.14 14.3881 175.484 14.3881C174.044 14.3881 172.784 14.7382 171.704 15.4384C170.624 16.1035 169.796 17.1012 169.22 18.4315C168.68 19.7618 168.41 21.4072 168.41 23.3676C168.41 26.4482 169.076 28.8113 170.408 30.4566C171.776 32.102 173.63 32.9247 175.97 32.9247Z"
        fill="#000000" />
    <path
        d="M195.431 37.2831V9.81964H200.993L200.831 18.2215H201.803C202.307 16.191 202.955 14.5107 203.746 13.1804C204.574 11.8151 205.582 10.7998 206.77 10.1347C207.958 9.46956 209.326 9.13699 210.874 9.13699C212.602 9.13699 214.024 9.52207 215.14 10.2922C216.255 11.0624 217.101 12.1301 217.677 13.4954C218.289 14.8257 218.667 16.3836 218.811 18.1689H219.675C220.143 16.1385 220.809 14.4581 221.673 13.1279C222.573 11.7976 223.653 10.7998 224.913 10.1347C226.209 9.46956 227.631 9.13699 229.178 9.13699C230.69 9.13699 232.022 9.43455 233.174 10.0297C234.326 10.6248 235.28 11.5 236.036 12.6553C236.828 13.7755 237.404 15.1933 237.764 16.9087C238.16 18.624 238.358 20.602 238.358 22.8425V37.2831H231.5V23.6826C231.5 21.7222 231.32 20.0944 230.96 18.7991C230.636 17.5038 230.114 16.5411 229.394 15.911C228.711 15.2458 227.811 14.9132 226.695 14.9132C225.435 14.9132 224.337 15.3158 223.401 16.121C222.465 16.9262 221.727 18.0639 221.187 19.5342C220.647 20.9696 220.323 22.6149 220.215 24.4703V37.2831H213.52V23.9977C213.52 21.9673 213.34 20.2869 212.98 18.9566C212.62 17.5913 212.08 16.5761 211.36 15.911C210.64 15.2458 209.722 14.9132 208.606 14.9132C207.31 14.9132 206.194 15.3333 205.258 16.1735C204.358 17.0137 203.638 18.1689 203.098 19.6393C202.595 21.1096 202.307 22.7549 202.235 24.5753V37.2831H195.431Z"
        fill="#000000" />
    <path
        d="M257.781 37.9658C255.513 37.9658 253.479 37.6507 251.679 37.0205C249.915 36.3904 248.421 35.4802 247.197 34.29C245.974 33.0647 245.038 31.5944 244.39 29.879C243.742 28.1636 243.418 26.2207 243.418 24.0502C243.418 21.8798 243.724 19.8843 244.336 18.0639C244.984 16.2435 245.902 14.6682 247.09 13.3379C248.277 12.0076 249.717 10.9749 251.409 10.2397C253.137 9.50457 255.099 9.13699 257.295 9.13699C259.347 9.13699 261.182 9.46956 262.802 10.1347C264.422 10.7998 265.79 11.7976 266.906 13.1279C268.022 14.4231 268.85 16.051 269.39 18.0114C269.93 19.9368 270.11 22.1773 269.93 24.7329L247.845 24.8904V21.0571L265.988 20.8995L263.612 23.0525C263.828 21.0571 263.666 19.4292 263.126 18.1689C262.586 16.8737 261.812 15.9285 260.804 15.3333C259.797 14.7032 258.645 14.3881 257.349 14.3881C255.873 14.3881 254.577 14.7732 253.461 15.5434C252.345 16.2785 251.481 17.3638 250.869 18.7991C250.293 20.1994 250.005 21.9148 250.005 23.9452C250.005 26.9909 250.689 29.2664 252.057 30.7717C253.461 32.277 255.369 33.0297 257.781 33.0297C258.861 33.0297 259.761 32.9072 260.48 32.6621C261.236 32.382 261.866 32.032 262.37 31.6119C262.874 31.1568 263.27 30.6492 263.558 30.089C263.882 29.5289 264.134 28.9338 264.314 28.3037L270.254 29.6164C269.966 30.9117 269.498 32.067 268.85 33.0822C268.202 34.0974 267.356 34.9726 266.312 35.7078C265.304 36.4429 264.098 37.003 262.694 37.3881C261.29 37.7732 259.653 37.9658 257.781 37.9658Z"
        fill="#000000" />
    <path
        d="M275.609 37.2831V9.81964H281.278L281.116 18.2215H282.088C282.592 16.156 283.258 14.4581 284.086 13.1279C284.95 11.7976 286.048 10.7998 287.38 10.1347C288.712 9.46956 290.259 9.13699 292.023 9.13699C295.227 9.13699 297.657 10.2397 299.313 12.4452C301.005 14.6507 301.851 18.0639 301.851 22.6849V37.2831H294.993V23.3676C294.993 20.3919 294.525 18.2215 293.589 16.8562C292.689 15.4559 291.339 14.7557 289.54 14.7557C288.028 14.7557 286.75 15.2283 285.706 16.1735C284.662 17.0837 283.852 18.309 283.276 19.8493C282.736 21.3546 282.448 23.0175 282.412 24.8379V37.2831H275.609Z"
        fill="#000000" />
    <path
        d="M321.027 37.9658C318.255 37.9658 315.807 37.4231 313.683 36.3379C311.559 35.2177 309.886 33.5898 308.662 31.4543C307.474 29.2839 306.88 26.6233 306.88 23.4726C306.88 20.2519 307.492 17.5913 308.716 15.4909C309.976 13.3554 311.667 11.7626 313.791 10.7123C315.915 9.6621 318.309 9.13699 320.973 9.13699C323.744 9.13699 326.192 9.67961 328.316 10.7648C330.44 11.8501 332.114 13.4779 333.338 15.6484C334.562 17.7839 335.174 20.4444 335.174 23.6301C335.174 26.8508 334.562 29.5289 333.338 31.6644C332.114 33.7998 330.422 35.3927 328.262 36.4429C326.138 37.4581 323.727 37.9658 321.027 37.9658ZM321.297 32.9247C322.809 32.9247 324.086 32.5921 325.13 31.9269C326.174 31.2268 326.966 30.1941 327.506 28.8288C328.082 27.4635 328.37 25.8356 328.37 23.9452C328.37 21.9498 328.064 20.2519 327.452 18.8516C326.876 17.4163 326.03 16.3135 324.914 15.5434C323.834 14.7732 322.467 14.3881 320.811 14.3881C319.371 14.3881 318.111 14.7382 317.031 15.4384C315.951 16.1035 315.123 17.1012 314.547 18.4315C314.007 19.7618 313.737 21.4072 313.737 23.3676C313.737 26.4482 314.403 28.8113 315.735 30.4566C317.103 32.102 318.957 32.9247 321.297 32.9247Z"
        fill="#000000" />
    <path
        d="M340.758 37.2831V9.81964H346.428L346.266 18.2215H347.237C347.741 16.156 348.407 14.4581 349.235 13.1279C350.099 11.7976 351.197 10.7998 352.529 10.1347C353.861 9.46956 355.409 9.13699 357.173 9.13699C360.376 9.13699 362.806 10.2397 364.462 12.4452C366.154 14.6507 367 18.0639 367 22.6849V37.2831H360.142V23.3676C360.142 20.3919 359.675 18.2215 358.739 16.8562C357.839 15.4559 356.489 14.7557 354.689 14.7557C353.177 14.7557 351.899 15.2283 350.855 16.1735C349.811 17.0837 349.001 18.309 348.425 19.8493C347.885 21.3546 347.597 23.0175 347.561 24.8379V37.2831H340.758Z"
        fill="#000000" />
</svg>