<svg xmlns="http://www.w3.org/2000/svg" width="1024" height="1024" style="shape-rendering:geometricPrecision;text-rendering:geometricPrecision;image-rendering:optimizeQuality;fill-rule:evenodd;clip-rule:evenodd"><path fill="#f17419" d="M425.5-.5h173c.17 90.67 0 181.33-.5 272a1806.56 1806.56 0 0 0-16 71l37-55a55096.95 55096.95 0 0 1 196.5-198 6810.2 6810.2 0 0 1 121 119.5l-196 196a2572.72 2572.72 0 0 0-59 34 956.96 956.96 0 0 0 54-10c96-.5 192-.67 288-.5v166c-95.33.17-190.67 0-286-.5a1078.07 1078.07 0 0 0-55-12l58 35a53962.03 53962.03 0 0 1 195 195.5 10192.7 10192.7 0 0 1-120 120 54990.58 54990.58 0 0 1-197.5-197l-35-53a814.95 814.95 0 0 0 15 54c.5 95.67.67 191.33.5 287h-173c-.17-96.67 0-193.33.5-290a588.26 588.26 0 0 0 15-51l-34 54a27281.45 27281.45 0 0 1-197 196 6819.51 6819.51 0 0 1-120.5-120 53330.5 53330.5 0 0 1 194-194.5 2511.58 2511.58 0 0 0 57-36 1047.06 1047.06 0 0 0-63 12c-92.67.5-185.33.67-278 .5v-166c96.67-.17 193.33 0 290 .5a1409.06 1409.06 0 0 0 52 10 2276.28 2276.28 0 0 0-55-33 18238.89 18238.89 0 0 1-197-196.5 10192.7 10192.7 0 0 1 120-120 15567.26 15567.26 0 0 1 182.5 181l50 72a1623.72 1623.72 0 0 0-16-67c-.5-92-.67-184-.5-276z" style="opacity:.998"/></svg>